<?xml version="1.0" standalone="no"?>
<!DOCTYPE svg PUBLIC "-//W3C//DTD SVG 20010904//EN"
 "http://www.w3.org/TR/2001/REC-SVG-20010904/DTD/svg10.dtd">
<svg version="1.0" xmlns="http://www.w3.org/2000/svg"
 width="512.000000pt" height="512.000000pt" viewBox="0 0 512.000000 512.000000"
 preserveAspectRatio="xMidYMid meet">
<metadata>
Created by potrace 1.14, written by Peter Selinger 2001-2017
</metadata>
<g transform="translate(0.000000,512.000000) scale(0.100000,-0.100000)"
fill="#000000" stroke="none">
<path d="M3614 5001 c-144 -39 -262 -118 -340 -227 l-46 -64 -58 0 c-200 0
-372 -110 -459 -293 -50 -106 -62 -160 -62 -271 1 -240 118 -411 332 -481 101
-34 116 -43 142 -84 22 -35 22 -45 27 -442 l5 -406 28 -41 c36 -55 90 -90 160
-103 37 -6 209 -9 475 -7 l417 3 55 31 c38 22 64 46 85 79 l30 48 5 401 c6
488 -2 461 150 516 200 71 333 237 359 448 9 70 -1 181 -20 241 -70 216 -274
360 -509 361 -64 0 -66 1 -84 34 -27 51 -127 146 -198 189 -96 58 -174 79
-308 83 -91 3 -130 0 -186 -15z m300 -106 c94 -25 167 -66 234 -132 76 -75
112 -148 120 -242 5 -72 22 -101 58 -101 44 0 57 26 52 107 l-5 73 33 0 c105
0 230 -55 299 -132 194 -216 123 -563 -139 -687 -73 -34 -182 -51 -337 -51
-117 0 -139 -9 -139 -55 0 -46 23 -55 135 -55 l104 0 -11 -32 c-7 -20 -13
-162 -15 -350 l-5 -317 -80 -3 c-44 -2 -82 -1 -84 1 -2 2 -4 90 -4 196 0 205
-2 215 -51 215 -53 0 -59 -24 -59 -232 l0 -188 -90 0 -90 0 0 191 c0 112 -4
198 -10 210 -13 23 -62 26 -84 3 -13 -13 -16 -46 -16 -210 l0 -194 -67 0
c-122 0 -113 -16 -113 198 0 158 -2 188 -17 204 -22 24 -69 24 -83 -1 -6 -12
-10 -95 -10 -200 l0 -181 -22 1 c-13 0 -54 8 -93 17 l-70 17 -5 310 -5 310
-28 48 c-38 64 -89 99 -194 132 -78 24 -92 33 -148 88 -69 70 -98 130 -116
248 -37 239 135 471 368 495 l61 7 -5 -70 c-7 -85 5 -113 47 -113 40 0 57 30
63 112 6 90 36 149 116 229 70 69 146 113 234 135 72 17 202 17 271 -1z m-407
-2086 c75 -7 249 -10 457 -7 185 2 336 0 336 -5 0 -22 -34 -68 -60 -82 -44
-23 -895 -23 -928 1 -29 20 -52 65 -52 102 l0 29 63 -13 c34 -7 117 -19 184
-25z"/>
<path d="M640 4521 c-13 -9 -16 -74 -20 -447 l-5 -436 -147 -49 c-160 -53
-336 -130 -355 -156 -10 -13 -13 -360 -13 -1653 0 -1464 2 -1638 16 -1658 20
-29 30 -28 192 12 378 94 711 136 1085 136 367 0 681 -41 1031 -135 l128 -34
154 40 c335 85 580 118 930 126 421 9 774 -31 1191 -136 145 -37 157 -38 177
-9 14 20 16 194 16 1654 0 898 -3 1640 -6 1649 -13 32 -282 150 -322 140 -12
-3 -27 -17 -33 -32 -14 -38 8 -64 72 -87 30 -11 82 -32 117 -47 l62 -28 0
-1345 0 -1344 -78 33 c-527 222 -1164 263 -1756 114 -140 -35 -341 -94 -388
-113 -18 -8 -43 -17 -55 -20 l-23 -7 0 1340 0 1340 83 31 c145 56 165 76 133
125 -22 33 -39 32 -154 -11 l-97 -37 -20 29 c-212 295 -384 468 -625 627 -119
79 -317 178 -464 232 -253 93 -774 192 -826 156z m240 -121 c678 -100 1234
-428 1564 -925 l56 -84 -2 -1297 -3 -1297 -56 74 c-269 357 -691 631 -1173
763 -134 37 -329 73 -451 84 l-80 7 -3 1348 c-1 741 1 1347 5 1347 5 0 69 -9
143 -20z m-260 -1820 c0 -900 1 -940 18 -949 10 -5 75 -17 143 -26 514 -66
911 -218 1223 -467 109 -87 396 -385 396 -411 0 -3 -39 8 -87 25 -213 72 -503
136 -727 158 -171 18 -526 8 -682 -19 -212 -36 -477 -112 -647 -185 l-37 -16
2 1341 3 1342 70 30 c69 30 303 115 318 116 4 1 7 -422 7 -939z"/>
<path d="M1183 3949 c-7 -7 -13 -25 -13 -40 0 -32 13 -44 65 -58 31 -8 44 -8
62 4 27 18 31 66 8 85 -23 19 -107 25 -122 9z"/>
<path d="M1556 3814 c-19 -19 -21 -58 -3 -72 6 -5 52 -31 102 -57 154 -82 310
-194 445 -322 72 -68 103 -78 134 -44 26 29 14 50 -79 139 -137 132 -312 255
-492 346 -60 30 -85 32 -107 10z"/>
<path d="M1191 3563 c-24 -16 -28 -64 -8 -81 6 -5 48 -20 92 -32 236 -66 492
-205 730 -397 55 -45 113 -95 129 -112 36 -38 78 -41 100 -9 9 12 16 26 16 31
0 17 -99 113 -195 190 -246 198 -548 356 -787 412 -48 11 -60 11 -77 -2z"/>
<path d="M1192 3174 c-24 -17 -30 -65 -9 -82 6 -5 48 -20 92 -31 263 -72 556
-240 813 -468 94 -83 124 -91 152 -41 15 27 14 28 -40 84 -116 118 -342 282
-520 377 -100 54 -278 126 -370 151 -36 10 -72 19 -80 22 -9 2 -26 -3 -38 -12z"/>
<path d="M1179 2813 c-20 -23 -25 -427 -7 -462 9 -17 38 -34 93 -56 86 -34
202 -91 250 -124 38 -26 60 -26 85 -1 19 19 20 33 20 238 0 159 -3 223 -12
235 -21 27 -171 112 -268 151 -99 40 -140 45 -161 19z m264 -195 l67 -39 0
-134 c0 -74 -3 -135 -8 -135 -4 0 -18 7 -31 16 -12 9 -60 31 -104 50 l-82 33
-3 145 -3 145 48 -21 c27 -11 78 -38 116 -60z"/>
<path d="M1786 2511 c-32 -35 -17 -62 65 -116 91 -60 150 -107 246 -197 80
-75 111 -85 138 -44 15 22 15 27 1 54 -34 65 -361 322 -411 322 -12 0 -30 -9
-39 -19z"/>
<path d="M1785 2124 c-35 -35 -16 -64 90 -135 55 -37 144 -108 197 -158 106
-98 135 -110 163 -67 23 35 8 61 -81 141 -103 92 -154 133 -238 189 -74 49
-105 56 -131 30z"/>
<path d="M4177 2352 c-95 -81 -180 -169 -197 -203 -10 -19 -24 -64 -30 -100
-12 -66 -58 -165 -91 -195 -22 -19 24 -51 -412 283 -154 117 -282 213 -287
213 -22 0 -33 -38 -37 -137 -8 -171 29 -286 122 -380 90 -89 226 -143 405
-158 47 -4 99 -13 116 -20 17 -7 176 -119 354 -249 347 -255 357 -260 405
-211 26 25 32 63 15 96 -6 10 -132 111 -280 225 -149 113 -268 209 -265 214
11 17 105 30 210 27 101 -2 114 0 157 23 58 30 215 166 224 193 7 21 -21 57
-45 57 -9 0 -58 -36 -110 -81 -51 -44 -105 -85 -120 -90 -25 -10 -222 -9 -220
1 0 3 72 61 160 130 88 69 165 133 170 143 19 34 -33 83 -64 59 -7 -5 -82 -64
-167 -132 -85 -68 -161 -128 -167 -133 -10 -7 -9 2 2 33 8 23 15 50 15 59 0
63 23 97 133 203 104 100 110 108 100 131 -19 40 -49 40 -96 -1z"/>
<path d="M3330 1455 c-96 -74 -183 -145 -192 -156 -41 -49 -2 -129 61 -129 27
0 192 115 459 318 49 37 42 55 -30 80 -104 37 -103 37 -298 -113z"/>
</g>
</svg>
